<svg xmlns="http://www.w3.org/2000/svg" xmlns:xlink="http://www.w3.org/1999/xlink" width="1134" zoomAndPan="magnify" viewBox="0 0 850.07996 283.499989" height="378" preserveAspectRatio="xMidYMid meet" version="1.0"><defs><g/></defs><g fill="#ffffff" fill-opacity="1"><g transform="translate(29.540459, 195.01335)"><g><path d="M 25.859375 -24.171875 L 25.859375 -46.15625 C 28.148438 -49.957031 30.414062 -53.523438 32.65625 -56.859375 C 34.894531 -60.203125 37.28125 -63.523438 39.8125 -66.828125 C 42.34375 -70.140625 45.191406 -73.695312 48.359375 -77.5 L 75.015625 -108.828125 L 102.265625 -108.828125 L 56.3125 -55.734375 L 54.484375 -56.25 Z M 9.421875 0 L 9.421875 -108.828125 L 31.78125 -108.828125 L 31.78125 -79.03125 L 31.484375 -51.34375 L 31.78125 -40.46875 L 31.78125 0 Z M 77.140625 0 L 44.78125 -49.15625 L 58.734375 -65.890625 L 103.359375 0 Z M 77.140625 0 "/></g></g></g><g fill="#ffffff" fill-opacity="1"><g transform="translate(128.478544, 195.01335)"><g><path d="M 8.984375 0 L 8.984375 -80.640625 L 30.09375 -80.640625 L 30.09375 -66.6875 L 30.828125 -66.6875 C 32.285156 -71.601562 34.71875 -75.316406 38.125 -77.828125 C 41.53125 -80.335938 45.570312 -81.59375 50.25 -81.59375 C 51.414062 -81.59375 52.632812 -81.539062 53.90625 -81.4375 C 55.175781 -81.34375 56.269531 -81.195312 57.1875 -81 L 57.1875 -61.71875 C 56.269531 -62.007812 54.894531 -62.238281 53.0625 -62.40625 C 51.238281 -62.582031 49.472656 -62.671875 47.765625 -62.671875 C 44.554688 -62.671875 41.648438 -61.960938 39.046875 -60.546875 C 36.441406 -59.140625 34.40625 -57.144531 32.9375 -54.5625 C 31.476562 -51.976562 30.75 -48.9375 30.75 -45.4375 L 30.75 0 Z M 8.984375 0 "/></g></g></g><g fill="#ffffff" fill-opacity="1"><g transform="translate(183.082123, 195.01335)"><g><path d="M 8.90625 29.296875 L 12.859375 12.640625 L 17.09375 13.21875 C 19.769531 13.800781 22.117188 13.894531 24.140625 13.5 C 26.160156 13.113281 27.789062 12.203125 29.03125 10.765625 C 30.269531 9.335938 31.085938 7.359375 31.484375 4.828125 L 32.4375 0.140625 L 1.96875 -80.640625 L 25.046875 -80.640625 L 38.640625 -39.21875 C 40.296875 -34.0625 41.671875 -28.890625 42.765625 -23.703125 C 43.859375 -18.515625 45.066406 -13.144531 46.390625 -7.59375 L 41.125 -7.59375 C 42.4375 -13.144531 43.75 -18.523438 45.0625 -23.734375 C 46.382812 -28.953125 47.875 -34.113281 49.53125 -39.21875 L 63.625 -80.640625 L 86.484375 -80.640625 L 51.9375 10.15625 C 50.28125 14.488281 48.195312 18.210938 45.6875 21.328125 C 43.175781 24.441406 40.09375 26.828125 36.4375 28.484375 C 32.789062 30.140625 28.390625 30.96875 23.234375 30.96875 C 20.453125 30.96875 17.804688 30.804688 15.296875 30.484375 C 12.796875 30.171875 10.664062 29.773438 8.90625 29.296875 Z M 8.90625 29.296875 "/></g></g></g><g fill="#ffffff" fill-opacity="1"><g transform="translate(264.052619, 195.01335)"><g><path d="M 8.984375 30.53125 L 8.984375 -80.640625 L 30.390625 -80.640625 L 30.390625 -67.640625 L 31.328125 -67.640625 C 32.453125 -69.929688 33.988281 -72.160156 35.9375 -74.328125 C 37.882812 -76.492188 40.378906 -78.28125 43.421875 -79.6875 C 46.460938 -81.101562 50.148438 -81.8125 54.484375 -81.8125 C 60.671875 -81.8125 66.257812 -80.210938 71.25 -77.015625 C 76.238281 -73.828125 80.21875 -69.15625 83.1875 -63 C 86.164062 -56.84375 87.65625 -49.257812 87.65625 -40.25 C 87.65625 -31.382812 86.203125 -23.859375 83.296875 -17.671875 C 80.398438 -11.492188 76.441406 -6.769531 71.421875 -3.5 C 66.410156 -0.238281 60.71875 1.390625 54.34375 1.390625 C 50.15625 1.390625 46.550781 0.695312 43.53125 -0.6875 C 40.507812 -2.082031 38.015625 -3.847656 36.046875 -5.984375 C 34.078125 -8.128906 32.503906 -10.367188 31.328125 -12.703125 L 30.75 -12.703125 L 30.75 30.53125 Z M 47.84375 -16.140625 C 51.644531 -16.140625 54.832031 -17.148438 57.40625 -19.171875 C 59.988281 -21.191406 61.945312 -24.015625 63.28125 -27.640625 C 64.625 -31.273438 65.296875 -35.5 65.296875 -40.3125 C 65.296875 -45.09375 64.625 -49.28125 63.28125 -52.875 C 61.945312 -56.476562 59.988281 -59.28125 57.40625 -61.28125 C 54.832031 -63.28125 51.644531 -64.28125 47.84375 -64.28125 C 44.144531 -64.28125 40.96875 -63.289062 38.3125 -61.3125 C 35.65625 -59.34375 33.632812 -56.566406 32.25 -52.984375 C 30.863281 -49.410156 30.171875 -45.1875 30.171875 -40.3125 C 30.171875 -35.445312 30.875 -31.210938 32.28125 -27.609375 C 33.695312 -24.003906 35.726562 -21.191406 38.375 -19.171875 C 41.03125 -17.148438 44.1875 -16.140625 47.84375 -16.140625 Z M 47.84375 -16.140625 "/></g></g></g><g fill="#ffffff" fill-opacity="1"><g transform="translate(349.770643, 195.01335)"><g><path d="M 50.328125 -80.640625 L 50.328125 -63.90625 L 1.390625 -63.90625 L 1.390625 -80.640625 Z M 13.140625 -100.4375 L 34.921875 -100.4375 L 34.921875 -23.890625 C 34.921875 -21.304688 35.488281 -19.414062 36.625 -18.21875 C 37.769531 -17.03125 39.679688 -16.4375 42.359375 -16.4375 C 43.335938 -16.4375 44.59375 -16.519531 46.125 -16.6875 C 47.65625 -16.863281 48.835938 -17.023438 49.671875 -17.171875 L 52.078125 -0.578125 C 49.890625 -0.046875 47.601562 0.328125 45.21875 0.546875 C 42.832031 0.765625 40.519531 0.875 38.28125 0.875 C 30 0.875 23.738281 -1.035156 19.5 -4.859375 C 15.257812 -8.679688 13.140625 -14.269531 13.140625 -21.625 Z M 13.140625 -100.4375 "/></g></g></g><g fill="#ffffff" fill-opacity="1"><g transform="translate(395.755372, 195.01335)"><g><path d="M 45.359375 1.609375 C 37.222656 1.609375 30.171875 -0.128906 24.203125 -3.609375 C 18.242188 -7.097656 13.644531 -11.96875 10.40625 -18.21875 C 7.164062 -24.476562 5.546875 -31.75 5.546875 -40.03125 C 5.546875 -48.40625 7.164062 -55.71875 10.40625 -61.96875 C 13.644531 -68.226562 18.242188 -73.097656 24.203125 -76.578125 C 30.171875 -80.066406 37.222656 -81.8125 45.359375 -81.8125 C 53.441406 -81.8125 60.460938 -80.066406 66.421875 -76.578125 C 72.390625 -73.097656 76.992188 -68.226562 80.234375 -61.96875 C 83.472656 -55.71875 85.09375 -48.40625 85.09375 -40.03125 C 85.09375 -31.75 83.472656 -24.476562 80.234375 -18.21875 C 76.992188 -11.96875 72.390625 -7.097656 66.421875 -3.609375 C 60.460938 -0.128906 53.441406 1.609375 45.359375 1.609375 Z M 45.359375 -15.625 C 49.160156 -15.625 52.363281 -16.671875 54.96875 -18.765625 C 57.570312 -20.859375 59.554688 -23.742188 60.921875 -27.421875 C 62.285156 -31.097656 62.96875 -35.320312 62.96875 -40.09375 C 62.96875 -44.914062 62.285156 -49.148438 60.921875 -52.796875 C 59.554688 -56.453125 57.570312 -59.328125 54.96875 -61.421875 C 52.363281 -63.523438 49.160156 -64.578125 45.359375 -64.578125 C 41.554688 -64.578125 38.34375 -63.523438 35.71875 -61.421875 C 33.09375 -59.328125 31.109375 -56.453125 29.765625 -52.796875 C 28.421875 -49.148438 27.75 -44.914062 27.75 -40.09375 C 27.75 -35.320312 28.421875 -31.097656 29.765625 -27.421875 C 31.109375 -23.742188 33.082031 -20.859375 35.6875 -18.765625 C 38.289062 -16.671875 41.515625 -15.625 45.359375 -15.625 Z M 45.359375 -15.625 "/></g></g></g><g fill="#27d3b8" fill-opacity="1"><g transform="translate(478.923644, 195.01335)"><g><path d="M 47.765625 0 L 19.578125 0 L 19.578125 -19.140625 L 46.671875 -19.140625 C 53.734375 -19.140625 59.640625 -20.40625 64.390625 -22.9375 C 69.140625 -25.46875 72.707031 -29.347656 75.09375 -34.578125 C 77.476562 -39.816406 78.671875 -46.453125 78.671875 -54.484375 C 78.671875 -62.472656 77.476562 -69.070312 75.09375 -74.28125 C 72.707031 -79.488281 69.148438 -83.359375 64.421875 -85.890625 C 59.703125 -88.429688 53.835938 -89.703125 46.828125 -89.703125 L 19.0625 -89.703125 L 19.0625 -108.828125 L 48.140625 -108.828125 C 59.097656 -108.828125 68.503906 -106.648438 76.359375 -102.296875 C 84.222656 -97.941406 90.285156 -91.695312 94.546875 -83.5625 C 98.816406 -75.425781 100.953125 -65.734375 100.953125 -54.484375 C 100.953125 -43.191406 98.832031 -33.476562 94.59375 -25.34375 C 90.351562 -17.207031 84.253906 -10.945312 76.296875 -6.5625 C 68.335938 -2.1875 58.828125 0 47.765625 0 Z M 31.78125 -108.828125 L 31.78125 0 L 9.421875 0 L 9.421875 -108.828125 Z M 31.78125 -108.828125 "/></g></g></g><g fill="#27d3b8" fill-opacity="1"><g transform="translate(578.738197, 195.01335)"><g><path d="M 45.5 1.609375 C 37.269531 1.609375 30.171875 -0.09375 24.203125 -3.5 C 18.242188 -6.914062 13.644531 -11.738281 10.40625 -17.96875 C 7.164062 -24.195312 5.546875 -31.523438 5.546875 -39.953125 C 5.546875 -48.285156 7.148438 -55.578125 10.359375 -61.828125 C 13.578125 -68.085938 18.109375 -72.984375 23.953125 -76.515625 C 29.796875 -80.046875 36.640625 -81.8125 44.484375 -81.8125 C 49.890625 -81.8125 54.90625 -80.929688 59.53125 -79.171875 C 64.15625 -77.421875 68.207031 -74.828125 71.6875 -71.390625 C 75.175781 -67.960938 77.878906 -63.679688 79.796875 -58.546875 C 81.722656 -53.410156 82.6875 -47.484375 82.6875 -40.765625 L 82.6875 -34.703125 L 14.25 -34.703125 L 14.25 -48.421875 L 72.09375 -48.421875 L 61.9375 -44.84375 C 61.9375 -49.03125 61.28125 -52.65625 59.96875 -55.71875 C 58.65625 -58.789062 56.71875 -61.164062 54.15625 -62.84375 C 51.601562 -64.53125 48.453125 -65.375 44.703125 -65.375 C 40.953125 -65.375 37.757812 -64.519531 35.125 -62.8125 C 32.5 -61.113281 30.492188 -58.773438 29.109375 -55.796875 C 27.722656 -52.828125 27.03125 -49.421875 27.03125 -45.578125 L 27.03125 -35.9375 C 27.03125 -31.40625 27.804688 -27.554688 29.359375 -24.390625 C 30.921875 -21.234375 33.125 -18.835938 35.96875 -17.203125 C 38.820312 -15.566406 42.144531 -14.75 45.9375 -14.75 C 48.519531 -14.75 50.867188 -15.125 52.984375 -15.875 C 55.109375 -16.632812 56.910156 -17.734375 58.390625 -19.171875 C 59.878906 -20.609375 61.015625 -22.375 61.796875 -24.46875 L 81.59375 -21.625 C 80.320312 -16.945312 78.039062 -12.863281 74.75 -9.375 C 71.46875 -5.894531 67.351562 -3.191406 62.40625 -1.265625 C 57.46875 0.648438 51.832031 1.609375 45.5 1.609375 Z M 45.5 1.609375 "/></g></g></g><g fill="#27d3b8" fill-opacity="1"><g transform="translate(659.197414, 195.01335)"><g><path d="M 41.265625 1.6875 C 34.691406 1.6875 28.859375 0.722656 23.765625 -1.203125 C 18.679688 -3.128906 14.546875 -5.914062 11.359375 -9.5625 C 8.171875 -13.21875 6.160156 -17.601562 5.328125 -22.71875 L 25.859375 -25.5 C 26.785156 -21.789062 28.5625 -18.988281 31.1875 -17.09375 C 33.820312 -15.195312 37.328125 -14.25 41.703125 -14.25 C 45.847656 -14.25 49.113281 -15.035156 51.5 -16.609375 C 53.882812 -18.191406 55.078125 -20.203125 55.078125 -22.640625 C 55.078125 -24.734375 54.210938 -26.445312 52.484375 -27.78125 C 50.753906 -29.125 48.160156 -30.160156 44.703125 -30.890625 L 30.75 -33.671875 C 22.957031 -35.273438 17.113281 -38 13.21875 -41.84375 C 9.320312 -45.695312 7.375 -50.664062 7.375 -56.75 C 7.375 -61.863281 8.773438 -66.296875 11.578125 -70.046875 C 14.378906 -73.796875 18.320312 -76.691406 23.40625 -78.734375 C 28.5 -80.785156 34.453125 -81.8125 41.265625 -81.8125 C 47.796875 -81.8125 53.445312 -80.882812 58.21875 -79.03125 C 62.988281 -77.175781 66.820312 -74.546875 69.71875 -71.140625 C 72.613281 -67.734375 74.453125 -63.71875 75.234375 -59.09375 L 55.734375 -56.390625 C 55.046875 -59.265625 53.519531 -61.613281 51.15625 -63.4375 C 48.800781 -65.257812 45.648438 -66.171875 41.703125 -66.171875 C 38.054688 -66.171875 35.050781 -65.40625 32.6875 -63.875 C 30.320312 -62.34375 29.140625 -60.359375 29.140625 -57.921875 C 29.140625 -55.878906 29.941406 -54.160156 31.546875 -52.765625 C 33.160156 -51.378906 35.789062 -50.320312 39.4375 -49.59375 L 54.046875 -46.671875 C 61.941406 -45.117188 67.800781 -42.539062 71.625 -38.9375 C 75.445312 -35.332031 77.359375 -30.628906 77.359375 -24.828125 C 77.359375 -19.523438 75.820312 -14.890625 72.75 -10.921875 C 69.6875 -6.953125 65.4375 -3.859375 60 -1.640625 C 54.570312 0.578125 48.328125 1.6875 41.265625 1.6875 Z M 41.265625 1.6875 "/></g></g></g><g fill="#27d3b8" fill-opacity="1"><g transform="translate(734.178714, 195.01335)"><g><path d="M 28.703125 -23.515625 L 28.703125 -49.671875 L 31.84375 -49.671875 L 58.578125 -80.640625 L 83.921875 -80.640625 L 48.71875 -40.171875 L 43.609375 -40.171875 Z M 8.984375 0 L 8.984375 -108.828125 L 30.75 -108.828125 L 30.75 0 Z M 59.828125 0 L 35.359375 -35.28125 L 49.890625 -50.765625 L 85.46875 0 Z M 59.828125 0 "/></g></g></g></svg>