<svg xmlns="http://www.w3.org/2000/svg" xmlns:xlink="http://www.w3.org/1999/xlink" width="756" zoomAndPan="magnify" viewBox="0 0 567 567.000005" height="756" preserveAspectRatio="xMidYMid meet" version="1.0"><defs><clipPath id="e71957cc71"><path d="M 33.988281 31.703125 L 538 31.703125 L 538 531.867188 L 33.988281 531.867188 Z M 33.988281 31.703125 " clip-rule="nonzero"/></clipPath><clipPath id="da4d570521"><path d="M 63.9375 31.703125 L 507.222656 31.703125 C 523.761719 31.703125 537.171875 45.113281 537.171875 61.652344 L 537.171875 501.917969 C 537.171875 518.457031 523.761719 531.867188 507.222656 531.867188 L 63.9375 531.867188 C 47.394531 531.867188 33.988281 518.457031 33.988281 501.917969 L 33.988281 61.652344 C 33.988281 45.113281 47.394531 31.703125 63.9375 31.703125 Z M 63.9375 31.703125 " clip-rule="nonzero"/></clipPath><clipPath id="e75e361ee0"><path d="M 0.988281 0.703125 L 504.390625 0.703125 L 504.390625 500.867188 L 0.988281 500.867188 Z M 0.988281 0.703125 " clip-rule="nonzero"/></clipPath><clipPath id="f7df353850"><path d="M 30.9375 0.703125 L 474.222656 0.703125 C 490.761719 0.703125 504.171875 14.113281 504.171875 30.652344 L 504.171875 470.917969 C 504.171875 487.457031 490.761719 500.867188 474.222656 500.867188 L 30.9375 500.867188 C 14.394531 500.867188 0.988281 487.457031 0.988281 470.917969 L 0.988281 30.652344 C 0.988281 14.113281 14.394531 0.703125 30.9375 0.703125 Z M 30.9375 0.703125 " clip-rule="nonzero"/></clipPath><clipPath id="51eb2dfe79"><rect x="0" width="505" y="0" height="501"/></clipPath><clipPath id="1fa7d8bbea"><path d="M 301 130 L 502 130 L 502 329 L 301 329 Z M 301 130 " clip-rule="nonzero"/></clipPath><clipPath id="38149a1647"><path d="M 418.980469 31.703125 L 584.621094 229.894531 L 182.496094 565.976562 L 16.855469 367.785156 Z M 418.980469 31.703125 " clip-rule="nonzero"/></clipPath><clipPath id="b653672643"><path d="M 418.980469 31.703125 L 584.621094 229.894531 L 182.496094 565.976562 L 16.855469 367.785156 Z M 418.980469 31.703125 " clip-rule="nonzero"/></clipPath><clipPath id="53dfdc58f3"><path d="M 63 214 L 402 214 L 402 472 L 63 472 Z M 63 214 " clip-rule="nonzero"/></clipPath><clipPath id="ab77fb8d5f"><path d="M 418.980469 31.703125 L 584.621094 229.894531 L 182.496094 565.976562 L 16.855469 367.785156 Z M 418.980469 31.703125 " clip-rule="nonzero"/></clipPath><clipPath id="2132e156b9"><path d="M 418.980469 31.703125 L 584.621094 229.894531 L 182.496094 565.976562 L 16.855469 367.785156 Z M 418.980469 31.703125 " clip-rule="nonzero"/></clipPath><clipPath id="97703c6ac3"><path d="M 54.886719 417.753906 L 272.667969 417.753906 L 272.667969 486.136719 L 54.886719 486.136719 Z M 54.886719 417.753906 " clip-rule="nonzero"/></clipPath><clipPath id="52959aca6a"><path d="M 0.886719 0.753906 L 218.667969 0.753906 L 218.667969 69.136719 L 0.886719 69.136719 Z M 0.886719 0.753906 " clip-rule="nonzero"/></clipPath><clipPath id="8aeb3e8531"><rect x="0" width="219" y="0" height="70"/></clipPath></defs><g clip-path="url(#e71957cc71)"><g clip-path="url(#da4d570521)"><g transform="matrix(1, 0, 0, 1, 33, 31)"><g clip-path="url(#51eb2dfe79)"><g clip-path="url(#e75e361ee0)"><g clip-path="url(#f7df353850)"><path fill="#27d3b8" d="M 0.988281 0.703125 L 505.058594 0.703125 L 505.058594 500.867188 L 0.988281 500.867188 Z M 0.988281 0.703125 " fill-opacity="1" fill-rule="nonzero"/></g></g></g></g></g></g><g clip-path="url(#1fa7d8bbea)"><g clip-path="url(#38149a1647)"><g clip-path="url(#b653672643)"><path fill="#ffffff" d="M 466.683594 328.332031 L 420.390625 272.941406 L 381.453125 305.484375 L 308.460938 218.148438 L 347.398438 185.609375 L 301.105469 130.21875 L 501.746094 130.785156 Z M 466.683594 328.332031 " fill-opacity="1" fill-rule="nonzero"/></g></g></g><g clip-path="url(#53dfdc58f3)"><g clip-path="url(#ab77fb8d5f)"><g clip-path="url(#2132e156b9)"><path fill="#18a193" d="M 365.945312 412.523438 L 319.652344 357.136719 L 182.757812 471.546875 L 63.203125 423.125 L 246.660156 269.800781 L 200.371094 214.410156 L 401.007812 214.980469 Z M 365.945312 412.523438 " fill-opacity="1" fill-rule="nonzero"/></g></g></g><g clip-path="url(#97703c6ac3)"><g transform="matrix(1, 0, 0, 1, 54, 417)"><g clip-path="url(#8aeb3e8531)"><g clip-path="url(#52959aca6a)"><path fill="#27d3b8" d="M 0.886719 0.753906 L 218.589844 0.753906 L 218.589844 69.136719 L 0.886719 69.136719 Z M 0.886719 0.753906 " fill-opacity="1" fill-rule="nonzero"/></g></g></g></g></svg>