<svg xmlns="http://www.w3.org/2000/svg" xmlns:xlink="http://www.w3.org/1999/xlink" width="1200" zoomAndPan="magnify" viewBox="0 0 900 472.499986" height="630" preserveAspectRatio="xMidYMid meet" version="1.0"><defs><g/><clipPath id="3173f0142f"><rect x="0" width="855" y="0" height="197"/></clipPath></defs><g transform="matrix(1, 0, 0, 1, 23, 137)"><g clip-path="url(#3173f0142f)"><g fill="#000000" fill-opacity="1"><g transform="translate(0.657907, 156.749554)"><g><path d="M 27.890625 -26.078125 L 27.890625 -49.796875 C 30.359375 -53.898438 32.800781 -57.75 35.21875 -61.34375 C 37.632812 -64.945312 40.207031 -68.535156 42.9375 -72.109375 C 45.675781 -75.679688 48.753906 -79.515625 52.171875 -83.609375 L 80.9375 -117.421875 L 110.328125 -117.421875 L 60.765625 -60.125 L 58.78125 -60.671875 Z M 10.171875 0 L 10.171875 -117.421875 L 34.28125 -117.421875 L 34.28125 -85.265625 L 33.96875 -55.40625 L 34.28125 -43.65625 L 34.28125 0 Z M 83.21875 0 L 48.3125 -53.03125 L 63.359375 -71.078125 L 111.5 0 Z M 83.21875 0 "/></g></g></g><g fill="#000000" fill-opacity="1"><g transform="translate(107.39323, 156.749554)"><g><path d="M 9.6875 0 L 9.6875 -87 L 32.46875 -87 L 32.46875 -71.953125 L 33.25 -71.953125 C 34.832031 -77.253906 37.460938 -81.257812 41.140625 -83.96875 C 44.816406 -86.675781 49.175781 -88.03125 54.21875 -88.03125 C 55.476562 -88.03125 56.789062 -87.972656 58.15625 -87.859375 C 59.519531 -87.753906 60.703125 -87.597656 61.703125 -87.390625 L 61.703125 -66.59375 C 60.703125 -66.90625 59.21875 -67.148438 57.25 -67.328125 C 55.28125 -67.515625 53.375 -67.609375 51.53125 -67.609375 C 48.070312 -67.609375 44.9375 -66.847656 42.125 -65.328125 C 39.3125 -63.804688 37.113281 -61.648438 35.53125 -58.859375 C 33.957031 -56.078125 33.171875 -52.796875 33.171875 -49.015625 L 33.171875 0 Z M 9.6875 0 "/></g></g></g><g fill="#000000" fill-opacity="1"><g transform="translate(166.300078, 156.749554)"><g><path d="M 9.609375 31.59375 L 13.875 13.640625 L 18.4375 14.265625 C 21.332031 14.890625 23.867188 14.992188 26.046875 14.578125 C 28.222656 14.160156 29.976562 13.175781 31.3125 11.625 C 32.65625 10.070312 33.539062 7.929688 33.96875 5.203125 L 34.984375 0.15625 L 2.125 -87 L 27.03125 -87 L 41.6875 -42.3125 C 43.46875 -36.75 44.945312 -31.164062 46.125 -25.5625 C 47.3125 -19.96875 48.617188 -14.179688 50.046875 -8.203125 L 44.359375 -8.203125 C 45.785156 -14.179688 47.207031 -19.984375 48.625 -25.609375 C 50.039062 -31.234375 51.640625 -36.800781 53.421875 -42.3125 L 68.640625 -87 L 93.296875 -87 L 56.03125 10.953125 C 54.238281 15.628906 51.988281 19.644531 49.28125 23 C 46.582031 26.363281 43.257812 28.9375 39.3125 30.71875 C 35.375 32.507812 30.625 33.40625 25.0625 33.40625 C 22.0625 33.40625 19.207031 33.234375 16.5 32.890625 C 13.800781 32.554688 11.503906 32.125 9.609375 31.59375 Z M 9.609375 31.59375 "/></g></g></g><g fill="#000000" fill-opacity="1"><g transform="translate(253.6518, 156.749554)"><g><path d="M 9.6875 32.9375 L 9.6875 -87 L 32.78125 -87 L 32.78125 -72.96875 L 33.8125 -72.96875 C 35.019531 -75.4375 36.671875 -77.835938 38.765625 -80.171875 C 40.867188 -82.515625 43.5625 -84.445312 46.84375 -85.96875 C 50.132812 -87.5 54.113281 -88.265625 58.78125 -88.265625 C 65.457031 -88.265625 71.488281 -86.539062 76.875 -83.09375 C 82.257812 -79.65625 86.550781 -74.613281 89.75 -67.96875 C 92.957031 -61.320312 94.5625 -53.140625 94.5625 -43.421875 C 94.5625 -33.859375 93 -25.738281 89.875 -19.0625 C 86.75 -12.394531 82.476562 -7.300781 77.0625 -3.78125 C 71.65625 -0.257812 65.507812 1.5 58.625 1.5 C 54.113281 1.5 50.226562 0.75 46.96875 -0.75 C 43.707031 -2.25 41.015625 -4.148438 38.890625 -6.453125 C 36.765625 -8.765625 35.070312 -11.1875 33.8125 -13.71875 L 33.171875 -13.71875 L 33.171875 32.9375 Z M 51.609375 -17.421875 C 55.710938 -17.421875 59.15625 -18.507812 61.9375 -20.6875 C 64.71875 -22.863281 66.832031 -25.910156 68.28125 -29.828125 C 69.726562 -33.742188 70.453125 -38.300781 70.453125 -43.5 C 70.453125 -48.644531 69.726562 -53.160156 68.28125 -57.046875 C 66.832031 -60.941406 64.71875 -63.960938 61.9375 -66.109375 C 59.15625 -68.265625 55.710938 -69.34375 51.609375 -69.34375 C 47.617188 -69.34375 44.191406 -68.28125 41.328125 -66.15625 C 38.460938 -64.03125 36.28125 -61.035156 34.78125 -57.171875 C 33.289062 -53.304688 32.546875 -48.75 32.546875 -43.5 C 32.546875 -38.25 33.304688 -33.675781 34.828125 -29.78125 C 36.347656 -25.894531 38.539062 -22.863281 41.40625 -20.6875 C 44.269531 -18.507812 47.671875 -17.421875 51.609375 -17.421875 Z M 51.609375 -17.421875 "/></g></g></g><g fill="#000000" fill-opacity="1"><g transform="translate(346.125199, 156.749554)"><g><path d="M 54.296875 -87 L 54.296875 -68.953125 L 1.5 -68.953125 L 1.5 -87 Z M 14.1875 -108.359375 L 37.671875 -108.359375 L 37.671875 -25.765625 C 37.671875 -22.984375 38.285156 -20.945312 39.515625 -19.65625 C 40.753906 -18.375 42.816406 -17.734375 45.703125 -17.734375 C 46.753906 -17.734375 48.109375 -17.820312 49.765625 -18 C 51.421875 -18.1875 52.695312 -18.359375 53.59375 -18.515625 L 56.1875 -0.625 C 53.820312 -0.0507812 51.351562 0.351562 48.78125 0.59375 C 46.207031 0.832031 43.710938 0.953125 41.296875 0.953125 C 32.359375 0.953125 25.601562 -1.109375 21.03125 -5.234375 C 16.46875 -9.359375 14.1875 -15.390625 14.1875 -23.328125 Z M 14.1875 -108.359375 "/></g></g></g><g fill="#000000" fill-opacity="1"><g transform="translate(395.73395, 156.749554)"><g><path d="M 48.9375 1.734375 C 40.164062 1.734375 32.5625 -0.140625 26.125 -3.890625 C 19.6875 -7.648438 14.71875 -12.90625 11.21875 -19.65625 C 7.726562 -26.40625 5.984375 -34.25 5.984375 -43.1875 C 5.984375 -52.21875 7.726562 -60.109375 11.21875 -66.859375 C 14.71875 -73.609375 19.6875 -78.863281 26.125 -82.625 C 32.5625 -86.382812 40.164062 -88.265625 48.9375 -88.265625 C 57.65625 -88.265625 65.234375 -86.382812 71.671875 -82.625 C 78.109375 -78.863281 83.070312 -73.609375 86.5625 -66.859375 C 90.0625 -60.109375 91.8125 -52.21875 91.8125 -43.1875 C 91.8125 -34.25 90.0625 -26.40625 86.5625 -19.65625 C 83.070312 -12.90625 78.109375 -7.648438 71.671875 -3.890625 C 65.234375 -0.140625 57.65625 1.734375 48.9375 1.734375 Z M 48.9375 -16.859375 C 53.03125 -16.859375 56.484375 -17.988281 59.296875 -20.25 C 62.109375 -22.507812 64.25 -25.625 65.71875 -29.59375 C 67.1875 -33.5625 67.921875 -38.117188 67.921875 -43.265625 C 67.921875 -48.460938 67.1875 -53.03125 65.71875 -56.96875 C 64.25 -60.914062 62.109375 -64.015625 59.296875 -66.265625 C 56.484375 -68.523438 53.03125 -69.65625 48.9375 -69.65625 C 44.84375 -69.65625 41.375 -68.523438 38.53125 -66.265625 C 35.695312 -64.015625 33.554688 -60.914062 32.109375 -56.96875 C 30.671875 -53.03125 29.953125 -48.460938 29.953125 -43.265625 C 29.953125 -38.117188 30.671875 -33.5625 32.109375 -29.59375 C 33.554688 -25.625 35.6875 -22.507812 38.5 -20.25 C 41.3125 -17.988281 44.789062 -16.859375 48.9375 -16.859375 Z M 48.9375 -16.859375 "/></g></g></g><g fill="#27d3b8" fill-opacity="1"><g transform="translate(485.456654, 156.749554)"><g><path d="M 51.53125 0 L 21.125 0 L 21.125 -20.640625 L 50.359375 -20.640625 C 57.972656 -20.640625 64.34375 -22.003906 69.46875 -24.734375 C 74.59375 -27.472656 78.441406 -31.664062 81.015625 -37.3125 C 83.585938 -42.957031 84.875 -50.113281 84.875 -58.78125 C 84.875 -67.40625 83.585938 -74.523438 81.015625 -80.140625 C 78.441406 -85.765625 74.601562 -89.941406 69.5 -92.671875 C 64.40625 -95.398438 58.078125 -96.765625 50.515625 -96.765625 L 20.5625 -96.765625 L 20.5625 -117.421875 L 51.9375 -117.421875 C 63.75 -117.421875 73.894531 -115.066406 82.375 -110.359375 C 90.863281 -105.660156 97.40625 -98.921875 102 -90.140625 C 106.601562 -81.367188 108.90625 -70.914062 108.90625 -58.78125 C 108.90625 -46.59375 106.617188 -36.113281 102.046875 -27.34375 C 97.472656 -18.570312 90.890625 -11.820312 82.296875 -7.09375 C 73.710938 -2.363281 63.457031 0 51.53125 0 Z M 34.28125 -117.421875 L 34.28125 0 L 10.171875 0 L 10.171875 -117.421875 Z M 34.28125 -117.421875 "/></g></g></g><g fill="#27d3b8" fill-opacity="1"><g transform="translate(593.137519, 156.749554)"><g><path d="M 49.09375 1.734375 C 40.21875 1.734375 32.5625 -0.101562 26.125 -3.78125 C 19.6875 -7.457031 14.71875 -12.65625 11.21875 -19.375 C 7.726562 -26.101562 5.984375 -34.015625 5.984375 -43.109375 C 5.984375 -52.085938 7.71875 -59.953125 11.1875 -66.703125 C 14.65625 -73.453125 19.539062 -78.734375 25.84375 -82.546875 C 32.144531 -86.359375 39.523438 -88.265625 47.984375 -88.265625 C 53.816406 -88.265625 59.226562 -87.316406 64.21875 -85.421875 C 69.21875 -83.535156 73.59375 -80.738281 77.34375 -77.03125 C 81.101562 -73.320312 84.019531 -68.695312 86.09375 -63.15625 C 88.164062 -57.613281 89.203125 -51.21875 89.203125 -43.96875 L 89.203125 -37.4375 L 15.359375 -37.4375 L 15.359375 -52.25 L 77.78125 -52.25 L 66.828125 -48.390625 C 66.828125 -52.898438 66.117188 -56.8125 64.703125 -60.125 C 63.285156 -63.4375 61.195312 -66 58.4375 -67.8125 C 55.675781 -69.625 52.273438 -70.53125 48.234375 -70.53125 C 44.179688 -70.53125 40.738281 -69.609375 37.90625 -67.765625 C 35.070312 -65.929688 32.90625 -63.410156 31.40625 -60.203125 C 29.90625 -57.003906 29.15625 -53.328125 29.15625 -49.171875 L 29.15625 -38.765625 C 29.15625 -33.878906 29.992188 -29.726562 31.671875 -26.3125 C 33.359375 -22.90625 35.738281 -20.320312 38.8125 -18.5625 C 41.882812 -16.800781 45.46875 -15.921875 49.5625 -15.921875 C 52.351562 -15.921875 54.890625 -16.328125 57.171875 -17.140625 C 59.453125 -17.953125 61.394531 -19.132812 63 -20.6875 C 64.601562 -22.238281 65.828125 -24.144531 66.671875 -26.40625 L 88.03125 -23.328125 C 86.65625 -18.285156 84.195312 -13.882812 80.65625 -10.125 C 77.113281 -6.363281 72.675781 -3.445312 67.34375 -1.375 C 62.007812 0.695312 55.925781 1.734375 49.09375 1.734375 Z M 49.09375 1.734375 "/></g></g></g><g fill="#27d3b8" fill-opacity="1"><g transform="translate(679.937669, 156.749554)"><g><path d="M 44.53125 1.8125 C 37.4375 1.8125 31.144531 0.773438 25.65625 -1.296875 C 20.164062 -3.367188 15.695312 -6.375 12.25 -10.3125 C 8.8125 -14.257812 6.644531 -18.992188 5.75 -24.515625 L 27.890625 -27.5 C 28.890625 -23.507812 30.804688 -20.488281 33.640625 -18.4375 C 36.484375 -16.382812 40.269531 -15.359375 45 -15.359375 C 49.46875 -15.359375 52.988281 -16.210938 55.5625 -17.921875 C 58.132812 -19.628906 59.421875 -21.796875 59.421875 -24.421875 C 59.421875 -26.679688 58.488281 -28.535156 56.625 -29.984375 C 54.757812 -31.429688 51.960938 -32.546875 48.234375 -33.328125 L 33.171875 -36.328125 C 24.765625 -38.054688 18.457031 -40.992188 14.25 -45.140625 C 10.050781 -49.296875 7.953125 -54.660156 7.953125 -61.234375 C 7.953125 -66.742188 9.460938 -71.519531 12.484375 -75.5625 C 15.503906 -79.613281 19.757812 -82.742188 25.25 -84.953125 C 30.738281 -87.160156 37.164062 -88.265625 44.53125 -88.265625 C 51.5625 -88.265625 57.648438 -87.265625 62.796875 -85.265625 C 67.953125 -83.265625 72.09375 -80.425781 75.21875 -76.75 C 78.34375 -73.070312 80.328125 -68.738281 81.171875 -63.75 L 60.125 -60.84375 C 59.394531 -63.9375 57.753906 -66.46875 55.203125 -68.4375 C 52.648438 -70.40625 49.25 -71.390625 45 -71.390625 C 41.0625 -71.390625 37.816406 -70.5625 35.265625 -68.90625 C 32.710938 -67.257812 31.4375 -65.117188 31.4375 -62.484375 C 31.4375 -60.285156 32.300781 -58.4375 34.03125 -56.9375 C 35.769531 -55.4375 38.609375 -54.296875 42.546875 -53.515625 L 58.3125 -50.359375 C 66.820312 -48.671875 73.140625 -45.882812 77.265625 -42 C 81.390625 -38.113281 83.453125 -33.046875 83.453125 -26.796875 C 83.453125 -21.066406 81.796875 -16.0625 78.484375 -11.78125 C 75.179688 -7.5 70.597656 -4.160156 64.734375 -1.765625 C 58.878906 0.617188 52.144531 1.8125 44.53125 1.8125 Z M 44.53125 1.8125 "/></g></g></g><g fill="#27d3b8" fill-opacity="1"><g transform="translate(760.828191, 156.749554)"><g><path d="M 30.96875 -25.375 L 30.96875 -53.59375 L 34.359375 -53.59375 L 63.203125 -87 L 90.546875 -87 L 52.5625 -43.34375 L 47.046875 -43.34375 Z M 9.6875 0 L 9.6875 -117.421875 L 33.171875 -117.421875 L 33.171875 0 Z M 64.546875 0 L 38.140625 -38.0625 L 53.828125 -54.765625 L 92.203125 0 Z M 64.546875 0 "/></g></g></g></g></g></svg>