<svg xmlns="http://www.w3.org/2000/svg" xmlns:xlink="http://www.w3.org/1999/xlink" width="1134" zoomAndPan="magnify" viewBox="0 0 850.07996 283.499989" height="378" preserveAspectRatio="xMidYMid meet" version="1.0"><defs><g/><clipPath id="fea556d5df"><path d="M 61.5625 98.121094 L 148.960938 98.121094 L 148.960938 184.84375 L 61.5625 184.84375 Z M 61.5625 98.121094 " clip-rule="nonzero"/></clipPath><clipPath id="c01791bdde"><path d="M 75.039062 98.121094 L 135.332031 98.121094 C 142.773438 98.121094 148.808594 104.15625 148.808594 111.597656 L 148.808594 171.367188 C 148.808594 178.808594 142.773438 184.84375 135.332031 184.84375 L 75.039062 184.84375 C 67.597656 184.84375 61.5625 178.808594 61.5625 171.367188 L 61.5625 111.597656 C 61.5625 104.15625 67.597656 98.121094 75.039062 98.121094 Z M 75.039062 98.121094 " clip-rule="nonzero"/></clipPath><clipPath id="85e6fe0cef"><path d="M 0.5625 0.121094 L 87.828125 0.121094 L 87.828125 86.84375 L 0.5625 86.84375 Z M 0.5625 0.121094 " clip-rule="nonzero"/></clipPath><clipPath id="2f12c39d6c"><path d="M 14.039062 0.121094 L 74.332031 0.121094 C 81.773438 0.121094 87.808594 6.15625 87.808594 13.597656 L 87.808594 73.367188 C 87.808594 80.808594 81.773438 86.84375 74.332031 86.84375 L 14.039062 86.84375 C 6.597656 86.84375 0.5625 80.808594 0.5625 73.367188 L 0.5625 13.597656 C 0.5625 6.15625 6.597656 0.121094 14.039062 0.121094 Z M 14.039062 0.121094 " clip-rule="nonzero"/></clipPath><clipPath id="159e1a4a00"><rect x="0" width="88" y="0" height="87"/></clipPath><clipPath id="1c27500fe0"><path d="M 107 115 L 143 115 L 143 150 L 107 150 Z M 107 115 " clip-rule="nonzero"/></clipPath><clipPath id="b44d074c12"><path d="M 128.3125 98.121094 L 157.117188 132.589844 L 87.609375 190.683594 L 58.800781 156.214844 Z M 128.3125 98.121094 " clip-rule="nonzero"/></clipPath><clipPath id="c716a65028"><path d="M 128.3125 98.121094 L 157.117188 132.589844 L 87.609375 190.683594 L 58.800781 156.214844 Z M 128.3125 98.121094 " clip-rule="nonzero"/></clipPath><clipPath id="b5e88ae657"><path d="M 66 129 L 126 129 L 126 175 L 66 175 Z M 66 129 " clip-rule="nonzero"/></clipPath><clipPath id="572ceb1167"><path d="M 128.3125 98.121094 L 157.117188 132.589844 L 87.609375 190.683594 L 58.800781 156.214844 Z M 128.3125 98.121094 " clip-rule="nonzero"/></clipPath><clipPath id="eaf824ccf5"><path d="M 128.3125 98.121094 L 157.117188 132.589844 L 87.609375 190.683594 L 58.800781 156.214844 Z M 128.3125 98.121094 " clip-rule="nonzero"/></clipPath><clipPath id="886cf3bcbb"><path d="M 65.1875 165.058594 L 102.945312 165.058594 L 102.945312 176.914062 L 65.1875 176.914062 Z M 65.1875 165.058594 " clip-rule="nonzero"/></clipPath><clipPath id="ee8fab7d3c"><path d="M 0.1875 0.0585938 L 37.945312 0.0585938 L 37.945312 11.914062 L 0.1875 11.914062 Z M 0.1875 0.0585938 " clip-rule="nonzero"/></clipPath><clipPath id="50b5d8d13b"><rect x="0" width="38" y="0" height="12"/></clipPath></defs><g clip-path="url(#fea556d5df)"><g clip-path="url(#c01791bdde)"><g transform="matrix(1, 0, 0, 1, 61, 98)"><g clip-path="url(#159e1a4a00)"><g clip-path="url(#85e6fe0cef)"><g clip-path="url(#2f12c39d6c)"><path fill="#27d3b8" d="M 0.5625 0.121094 L 87.960938 0.121094 L 87.960938 86.84375 L 0.5625 86.84375 Z M 0.5625 0.121094 " fill-opacity="1" fill-rule="nonzero"/></g></g></g></g></g></g><g clip-path="url(#1c27500fe0)"><g clip-path="url(#b44d074c12)"><g clip-path="url(#c716a65028)"><path fill="#ffffff" d="M 136.582031 149.546875 L 128.554688 139.945312 L 121.804688 145.585938 L 109.152344 130.445312 L 115.902344 124.804688 L 107.875 115.203125 L 142.660156 115.300781 Z M 136.582031 149.546875 " fill-opacity="1" fill-rule="nonzero"/></g></g></g><g clip-path="url(#b5e88ae657)"><g clip-path="url(#572ceb1167)"><g clip-path="url(#eaf824ccf5)"><path fill="#18a193" d="M 119.117188 164.144531 L 111.089844 154.542969 L 87.359375 174.378906 L 66.628906 165.984375 L 98.4375 139.402344 L 90.410156 129.796875 L 125.195312 129.898438 Z M 119.117188 164.144531 " fill-opacity="1" fill-rule="nonzero"/></g></g></g><g fill="#ffffff" fill-opacity="1"><g transform="translate(160.927301, 184.906119)"><g><path d="M 20.703125 -19.359375 L 20.703125 -36.96875 C 22.535156 -40.007812 24.347656 -42.863281 26.140625 -45.53125 C 27.929688 -48.195312 29.84375 -50.859375 31.875 -53.515625 C 33.90625 -56.171875 36.1875 -59.015625 38.71875 -62.046875 L 60.0625 -87.140625 L 81.875 -87.140625 L 45.09375 -44.625 L 43.625 -45.03125 Z M 7.546875 0 L 7.546875 -87.140625 L 25.4375 -87.140625 L 25.4375 -63.28125 L 25.203125 -41.109375 L 25.4375 -32.40625 L 25.4375 0 Z M 61.765625 0 L 35.859375 -39.359375 L 47.03125 -52.75 L 82.765625 0 Z M 61.765625 0 "/></g></g></g><g fill="#ffffff" fill-opacity="1"><g transform="translate(240.15865, 184.906119)"><g><path d="M 7.1875 0 L 7.1875 -64.5625 L 24.09375 -64.5625 L 24.09375 -53.40625 L 24.6875 -53.40625 C 25.851562 -57.34375 27.800781 -60.3125 30.53125 -62.3125 C 33.257812 -64.320312 36.492188 -65.328125 40.234375 -65.328125 C 41.171875 -65.328125 42.144531 -65.285156 43.15625 -65.203125 C 44.175781 -65.128906 45.054688 -65.015625 45.796875 -64.859375 L 45.796875 -49.421875 C 45.054688 -49.648438 43.953125 -49.832031 42.484375 -49.96875 C 41.023438 -50.113281 39.613281 -50.1875 38.25 -50.1875 C 35.675781 -50.1875 33.34375 -49.617188 31.25 -48.484375 C 29.164062 -47.359375 27.539062 -45.757812 26.375 -43.6875 C 25.207031 -41.625 24.625 -39.1875 24.625 -36.375 L 24.625 0 Z M 7.1875 0 "/></g></g></g><g fill="#ffffff" fill-opacity="1"><g transform="translate(283.886213, 184.906119)"><g><path d="M 7.140625 23.453125 L 10.296875 10.125 L 13.6875 10.59375 C 15.832031 11.050781 17.710938 11.125 19.328125 10.8125 C 20.941406 10.507812 22.242188 9.78125 23.234375 8.625 C 24.234375 7.476562 24.890625 5.890625 25.203125 3.859375 L 25.96875 0.109375 L 1.578125 -64.5625 L 20.0625 -64.5625 L 30.9375 -31.40625 C 32.257812 -27.269531 33.359375 -23.125 34.234375 -18.96875 C 35.117188 -14.820312 36.085938 -10.523438 37.140625 -6.078125 L 32.921875 -6.078125 C 33.972656 -10.523438 35.023438 -14.832031 36.078125 -19 C 37.140625 -23.175781 38.332031 -27.3125 39.65625 -31.40625 L 50.9375 -64.5625 L 69.25 -64.5625 L 41.578125 8.125 C 40.253906 11.59375 38.585938 14.578125 36.578125 17.078125 C 34.578125 19.578125 32.113281 21.488281 29.1875 22.8125 C 26.257812 24.132812 22.726562 24.796875 18.59375 24.796875 C 16.375 24.796875 14.257812 24.664062 12.25 24.40625 C 10.238281 24.15625 8.535156 23.835938 7.140625 23.453125 Z M 7.140625 23.453125 "/></g></g></g><g fill="#ffffff" fill-opacity="1"><g transform="translate(348.728878, 184.906119)"><g><path d="M 7.1875 24.453125 L 7.1875 -64.5625 L 24.328125 -64.5625 L 24.328125 -54.15625 L 25.09375 -54.15625 C 25.988281 -55.988281 27.210938 -57.769531 28.765625 -59.5 C 30.328125 -61.238281 32.328125 -62.671875 34.765625 -63.796875 C 37.203125 -64.929688 40.15625 -65.5 43.625 -65.5 C 48.582031 -65.5 53.054688 -64.222656 57.046875 -61.671875 C 61.046875 -59.117188 64.234375 -55.375 66.609375 -50.4375 C 68.992188 -45.507812 70.1875 -39.4375 70.1875 -32.21875 C 70.1875 -25.125 69.023438 -19.097656 66.703125 -14.140625 C 64.378906 -9.191406 61.207031 -5.410156 57.1875 -2.796875 C 53.175781 -0.191406 48.617188 1.109375 43.515625 1.109375 C 40.160156 1.109375 37.273438 0.554688 34.859375 -0.546875 C 32.441406 -1.660156 30.441406 -3.078125 28.859375 -4.796875 C 27.285156 -6.515625 26.03125 -8.304688 25.09375 -10.171875 L 24.625 -10.171875 L 24.625 24.453125 Z M 38.3125 -12.921875 C 41.351562 -12.921875 43.90625 -13.726562 45.96875 -15.34375 C 48.039062 -16.96875 49.609375 -19.234375 50.671875 -22.140625 C 51.742188 -25.046875 52.28125 -28.425781 52.28125 -32.28125 C 52.28125 -36.101562 51.742188 -39.457031 50.671875 -42.34375 C 49.609375 -45.226562 48.039062 -47.46875 45.96875 -49.0625 C 43.90625 -50.664062 41.351562 -51.46875 38.3125 -51.46875 C 35.34375 -51.46875 32.796875 -50.675781 30.671875 -49.09375 C 28.546875 -47.519531 26.925781 -45.300781 25.8125 -42.4375 C 24.707031 -39.570312 24.15625 -36.1875 24.15625 -32.28125 C 24.15625 -28.382812 24.71875 -24.992188 25.84375 -22.109375 C 26.976562 -19.222656 28.609375 -16.96875 30.734375 -15.34375 C 32.859375 -13.726562 35.382812 -12.921875 38.3125 -12.921875 Z M 38.3125 -12.921875 "/></g></g></g><g fill="#ffffff" fill-opacity="1"><g transform="translate(417.373431, 184.906119)"><g><path d="M 40.296875 -64.5625 L 40.296875 -51.171875 L 1.109375 -51.171875 L 1.109375 -64.5625 Z M 10.53125 -80.421875 L 27.953125 -80.421875 L 27.953125 -19.125 C 27.953125 -17.0625 28.410156 -15.550781 29.328125 -14.59375 C 30.242188 -13.632812 31.773438 -13.15625 33.921875 -13.15625 C 34.703125 -13.15625 35.707031 -13.222656 36.9375 -13.359375 C 38.164062 -13.492188 39.109375 -13.625 39.765625 -13.75 L 41.703125 -0.46875 C 39.941406 -0.0390625 38.109375 0.257812 36.203125 0.4375 C 34.296875 0.613281 32.441406 0.703125 30.640625 0.703125 C 24.015625 0.703125 19.003906 -0.828125 15.609375 -3.890625 C 12.222656 -6.953125 10.53125 -11.425781 10.53125 -17.3125 Z M 10.53125 -80.421875 "/></g></g></g><g fill="#ffffff" fill-opacity="1"><g transform="translate(454.199105, 184.906119)"><g><path d="M 36.328125 1.28125 C 29.804688 1.28125 24.15625 -0.109375 19.375 -2.890625 C 14.601562 -5.679688 10.921875 -9.582031 8.328125 -14.59375 C 5.734375 -19.601562 4.4375 -25.421875 4.4375 -32.046875 C 4.4375 -38.753906 5.734375 -44.613281 8.328125 -49.625 C 10.921875 -54.632812 14.601562 -58.53125 19.375 -61.3125 C 24.15625 -64.101562 29.804688 -65.5 36.328125 -65.5 C 42.796875 -65.5 48.414062 -64.101562 53.1875 -61.3125 C 57.96875 -58.53125 61.65625 -54.632812 64.25 -49.625 C 66.84375 -44.613281 68.140625 -38.753906 68.140625 -32.046875 C 68.140625 -25.421875 66.84375 -19.601562 64.25 -14.59375 C 61.65625 -9.582031 57.96875 -5.679688 53.1875 -2.890625 C 48.414062 -0.109375 42.796875 1.28125 36.328125 1.28125 Z M 36.328125 -12.515625 C 39.359375 -12.515625 41.914062 -13.351562 44 -15.03125 C 46.09375 -16.707031 47.6875 -19.015625 48.78125 -21.953125 C 49.875 -24.898438 50.421875 -28.285156 50.421875 -32.109375 C 50.421875 -35.972656 49.875 -39.363281 48.78125 -42.28125 C 47.6875 -45.207031 46.09375 -47.507812 44 -49.1875 C 41.914062 -50.863281 39.359375 -51.703125 36.328125 -51.703125 C 33.285156 -51.703125 30.707031 -50.863281 28.59375 -49.1875 C 26.488281 -47.507812 24.898438 -45.207031 23.828125 -42.28125 C 22.753906 -39.363281 22.21875 -35.972656 22.21875 -32.109375 C 22.21875 -28.285156 22.753906 -24.898438 23.828125 -21.953125 C 24.898438 -19.015625 26.476562 -16.707031 28.5625 -15.03125 C 30.65625 -13.351562 33.242188 -12.515625 36.328125 -12.515625 Z M 36.328125 -12.515625 "/></g></g></g><g fill="#27d3b8" fill-opacity="1"><g transform="translate(520.796491, 184.906119)"><g><path d="M 38.25 0 L 15.671875 0 L 15.671875 -15.328125 L 37.375 -15.328125 C 43.03125 -15.328125 47.757812 -16.335938 51.5625 -18.359375 C 55.363281 -20.390625 58.21875 -23.5 60.125 -27.6875 C 62.03125 -31.882812 62.984375 -37.195312 62.984375 -43.625 C 62.984375 -50.019531 62.03125 -55.300781 60.125 -59.46875 C 58.21875 -63.644531 55.367188 -66.75 51.578125 -68.78125 C 47.796875 -70.8125 43.097656 -71.828125 37.484375 -71.828125 L 15.265625 -71.828125 L 15.265625 -87.140625 L 38.546875 -87.140625 C 47.316406 -87.140625 54.847656 -85.394531 61.140625 -81.90625 C 67.441406 -78.414062 72.296875 -73.414062 75.703125 -66.90625 C 79.117188 -60.394531 80.828125 -52.632812 80.828125 -43.625 C 80.828125 -34.582031 79.128906 -26.804688 75.734375 -20.296875 C 72.347656 -13.785156 67.46875 -8.773438 61.09375 -5.265625 C 54.71875 -1.753906 47.101562 0 38.25 0 Z M 25.4375 -87.140625 L 25.4375 0 L 7.546875 0 L 7.546875 -87.140625 Z M 25.4375 -87.140625 "/></g></g></g><g fill="#27d3b8" fill-opacity="1"><g transform="translate(600.729728, 184.906119)"><g><path d="M 36.4375 1.28125 C 29.84375 1.28125 24.15625 -0.0820312 19.375 -2.8125 C 14.601562 -5.539062 10.921875 -9.398438 8.328125 -14.390625 C 5.734375 -19.378906 4.4375 -25.25 4.4375 -32 C 4.4375 -38.664062 5.722656 -44.503906 8.296875 -49.515625 C 10.878906 -54.523438 14.507812 -58.441406 19.1875 -61.265625 C 23.863281 -64.085938 29.34375 -65.5 35.625 -65.5 C 39.945312 -65.5 43.957031 -64.796875 47.65625 -63.390625 C 51.363281 -61.992188 54.613281 -59.921875 57.40625 -57.171875 C 60.195312 -54.421875 62.359375 -50.988281 63.890625 -46.875 C 65.429688 -42.757812 66.203125 -38.015625 66.203125 -32.640625 L 66.203125 -27.78125 L 11.40625 -27.78125 L 11.40625 -38.78125 L 57.734375 -38.78125 L 49.59375 -35.90625 C 49.59375 -39.257812 49.066406 -42.164062 48.015625 -44.625 C 46.960938 -47.082031 45.410156 -48.984375 43.359375 -50.328125 C 41.316406 -51.671875 38.796875 -52.34375 35.796875 -52.34375 C 32.796875 -52.34375 30.238281 -51.660156 28.125 -50.296875 C 26.019531 -48.929688 24.410156 -47.054688 23.296875 -44.671875 C 22.191406 -42.296875 21.640625 -39.570312 21.640625 -36.5 L 21.640625 -28.78125 C 21.640625 -25.15625 22.265625 -22.070312 23.515625 -19.53125 C 24.765625 -17 26.523438 -15.078125 28.796875 -13.765625 C 31.078125 -12.460938 33.738281 -11.8125 36.78125 -11.8125 C 38.851562 -11.8125 40.734375 -12.113281 42.421875 -12.71875 C 44.117188 -13.320312 45.5625 -14.195312 46.75 -15.34375 C 47.945312 -16.5 48.859375 -17.914062 49.484375 -19.59375 L 65.328125 -17.3125 C 64.316406 -13.570312 62.492188 -10.304688 59.859375 -7.515625 C 57.222656 -4.722656 53.925781 -2.554688 49.96875 -1.015625 C 46.019531 0.515625 41.507812 1.28125 36.4375 1.28125 Z M 36.4375 1.28125 "/></g></g></g><g fill="#27d3b8" fill-opacity="1"><g transform="translate(665.162959, 184.906119)"><g><path d="M 33.046875 1.34375 C 27.785156 1.34375 23.113281 0.570312 19.03125 -0.96875 C 14.957031 -2.507812 11.644531 -4.738281 9.09375 -7.65625 C 6.539062 -10.582031 4.929688 -14.09375 4.265625 -18.1875 L 20.703125 -20.40625 C 21.441406 -17.445312 22.863281 -15.207031 24.96875 -13.6875 C 27.070312 -12.164062 29.878906 -11.40625 33.390625 -11.40625 C 36.710938 -11.40625 39.328125 -12.035156 41.234375 -13.296875 C 43.140625 -14.566406 44.09375 -16.175781 44.09375 -18.125 C 44.09375 -19.800781 43.398438 -21.175781 42.015625 -22.25 C 40.640625 -23.320312 38.566406 -24.148438 35.796875 -24.734375 L 24.625 -26.96875 C 18.382812 -28.25 13.703125 -30.429688 10.578125 -33.515625 C 7.460938 -36.597656 5.90625 -40.570312 5.90625 -45.4375 C 5.90625 -49.53125 7.023438 -53.078125 9.265625 -56.078125 C 11.515625 -59.085938 14.675781 -61.410156 18.75 -63.046875 C 22.820312 -64.679688 27.585938 -65.5 33.046875 -65.5 C 38.265625 -65.5 42.785156 -64.757812 46.609375 -63.28125 C 50.429688 -61.800781 53.503906 -59.695312 55.828125 -56.96875 C 58.148438 -54.238281 59.617188 -51.019531 60.234375 -47.3125 L 44.625 -45.15625 C 44.082031 -47.457031 42.863281 -49.335938 40.96875 -50.796875 C 39.082031 -52.253906 36.554688 -52.984375 33.390625 -52.984375 C 30.472656 -52.984375 28.066406 -52.367188 26.171875 -51.140625 C 24.285156 -49.910156 23.34375 -48.320312 23.34375 -46.375 C 23.34375 -44.738281 23.984375 -43.363281 25.265625 -42.25 C 26.554688 -41.144531 28.660156 -40.300781 31.578125 -39.71875 L 43.28125 -37.375 C 49.59375 -36.125 54.28125 -34.054688 57.34375 -31.171875 C 60.40625 -28.285156 61.9375 -24.523438 61.9375 -19.890625 C 61.9375 -15.640625 60.707031 -11.925781 58.25 -8.75 C 55.789062 -5.570312 52.390625 -3.09375 48.046875 -1.3125 C 43.703125 0.457031 38.703125 1.34375 33.046875 1.34375 Z M 33.046875 1.34375 "/></g></g></g><g fill="#27d3b8" fill-opacity="1"><g transform="translate(725.209395, 184.906119)"><g><path d="M 22.984375 -18.828125 L 22.984375 -39.765625 L 25.5 -39.765625 L 46.90625 -64.5625 L 67.203125 -64.5625 L 39.015625 -32.171875 L 34.921875 -32.171875 Z M 7.1875 0 L 7.1875 -87.140625 L 24.625 -87.140625 L 24.625 0 Z M 47.90625 0 L 28.3125 -28.25 L 39.953125 -40.640625 L 68.4375 0 Z M 47.90625 0 "/></g></g></g><g clip-path="url(#886cf3bcbb)"><g transform="matrix(1, 0, 0, 1, 65, 165)"><g clip-path="url(#50b5d8d13b)"><g clip-path="url(#ee8fab7d3c)"><path fill="#27d3b8" d="M 0.1875 0.0585938 L 37.933594 0.0585938 L 37.933594 11.914062 L 0.1875 11.914062 Z M 0.1875 0.0585938 " fill-opacity="1" fill-rule="nonzero"/></g></g></g></g></svg>