<svg xmlns="http://www.w3.org/2000/svg" xmlns:xlink="http://www.w3.org/1999/xlink" width="756" zoomAndPan="magnify" viewBox="0 0 567 567.000005" height="756" preserveAspectRatio="xMidYMid meet" version="1.0"><defs><g/><clipPath id="71c009abe6"><path d="M 33 31 L 538 31 L 538 531.824219 L 33 531.824219 Z M 33 31 " clip-rule="nonzero"/></clipPath><clipPath id="419dccc3de"><path d="M 537.171875 61.652344 L 537.171875 501.878906 C 537.171875 509.820312 534.015625 517.4375 528.398438 523.054688 C 522.78125 528.671875 515.164062 531.824219 507.222656 531.824219 L 63.9375 531.824219 C 55.992188 531.824219 48.375 528.671875 42.761719 523.054688 C 37.144531 517.4375 33.988281 509.820312 33.988281 501.878906 L 33.988281 61.652344 C 33.988281 53.707031 37.144531 46.089844 42.761719 40.476562 C 48.375 34.859375 55.992188 31.703125 63.9375 31.703125 L 507.222656 31.703125 C 515.164062 31.703125 522.78125 34.859375 528.398438 40.476562 C 534.015625 46.089844 537.171875 53.707031 537.171875 61.652344 Z M 537.171875 61.652344 " clip-rule="nonzero"/></clipPath><clipPath id="0759a70296"><path d="M 0.800781 0.625 L 504.390625 0.625 L 504.390625 500.824219 L 0.800781 500.824219 Z M 0.800781 0.625 " clip-rule="nonzero"/></clipPath><clipPath id="222954a89a"><path d="M 504.171875 30.652344 L 504.171875 470.878906 C 504.171875 478.820312 501.015625 486.4375 495.398438 492.054688 C 489.78125 497.671875 482.164062 500.824219 474.222656 500.824219 L 30.9375 500.824219 C 22.992188 500.824219 15.375 497.671875 9.761719 492.054688 C 4.144531 486.4375 0.988281 478.820312 0.988281 470.878906 L 0.988281 30.652344 C 0.988281 22.707031 4.144531 15.089844 9.761719 9.476562 C 15.375 3.859375 22.992188 0.703125 30.9375 0.703125 L 474.222656 0.703125 C 482.164062 0.703125 489.78125 3.859375 495.398438 9.476562 C 501.015625 15.089844 504.171875 22.707031 504.171875 30.652344 Z M 504.171875 30.652344 " clip-rule="nonzero"/></clipPath><clipPath id="d3a9c6e81f"><rect x="0" width="505" y="0" height="501"/></clipPath><clipPath id="75a5f56e77"><path d="M 301 67 L 502 67 L 502 267 L 301 267 Z M 301 67 " clip-rule="nonzero"/></clipPath><clipPath id="01b03b7e8b"><path d="M 418.980469 -30.546875 L 584.621094 167.644531 L 182.496094 503.722656 L 16.855469 305.53125 Z M 418.980469 -30.546875 " clip-rule="nonzero"/></clipPath><clipPath id="c0001a0795"><path d="M 418.980469 -30.546875 L 584.621094 167.644531 L 182.496094 503.722656 L 16.855469 305.53125 Z M 418.980469 -30.546875 " clip-rule="nonzero"/></clipPath><clipPath id="83dfbb32b6"><path d="M 63 152 L 402 152 L 402 410 L 63 410 Z M 63 152 " clip-rule="nonzero"/></clipPath><clipPath id="f6b70b7dcc"><path d="M 418.980469 -30.546875 L 584.621094 167.644531 L 182.496094 503.722656 L 16.855469 305.53125 Z M 418.980469 -30.546875 " clip-rule="nonzero"/></clipPath><clipPath id="a6427ee5ef"><path d="M 418.980469 -30.546875 L 584.621094 167.644531 L 182.496094 503.722656 L 16.855469 305.53125 Z M 418.980469 -30.546875 " clip-rule="nonzero"/></clipPath><clipPath id="2a6af1f66a"><path d="M 54.886719 355.5 L 272.667969 355.5 L 272.667969 423.882812 L 54.886719 423.882812 Z M 54.886719 355.5 " clip-rule="nonzero"/></clipPath><clipPath id="d4cdb44aa5"><path d="M 0.886719 0.5 L 218.667969 0.5 L 218.667969 68.882812 L 0.886719 68.882812 Z M 0.886719 0.5 " clip-rule="nonzero"/></clipPath><clipPath id="229d7fe750"><rect x="0" width="219" y="0" height="69"/></clipPath></defs><g clip-path="url(#71c009abe6)"><g clip-path="url(#419dccc3de)"><g transform="matrix(1, 0, 0, 1, 33, 31)"><g clip-path="url(#d3a9c6e81f)"><g clip-path="url(#0759a70296)"><g clip-path="url(#222954a89a)"><path fill="#27d3b8" d="M 0.988281 0.703125 L 505.019531 0.703125 L 505.019531 500.824219 L 0.988281 500.824219 Z M 0.988281 0.703125 " fill-opacity="1" fill-rule="nonzero"/></g></g></g></g></g></g><g clip-path="url(#75a5f56e77)"><g clip-path="url(#01b03b7e8b)"><g clip-path="url(#c0001a0795)"><path fill="#ffffff" d="M 466.683594 266.078125 L 420.390625 210.691406 L 381.453125 243.234375 L 308.460938 155.898438 L 347.398438 123.355469 L 301.105469 67.964844 L 501.746094 68.535156 Z M 466.683594 266.078125 " fill-opacity="1" fill-rule="nonzero"/></g></g></g><g clip-path="url(#83dfbb32b6)"><g clip-path="url(#f6b70b7dcc)"><g clip-path="url(#a6427ee5ef)"><path fill="#18a193" d="M 365.945312 350.273438 L 319.652344 294.882812 L 182.757812 409.292969 L 63.203125 360.875 L 246.660156 207.546875 L 200.371094 152.160156 L 401.007812 152.726562 Z M 365.945312 350.273438 " fill-opacity="1" fill-rule="nonzero"/></g></g></g><g clip-path="url(#2a6af1f66a)"><g transform="matrix(1, 0, 0, 1, 54, 355)"><g clip-path="url(#229d7fe750)"><g clip-path="url(#d4cdb44aa5)"><path fill="#27d3b8" d="M 0.886719 0.5 L 218.589844 0.5 L 218.589844 68.882812 L 0.886719 68.882812 Z M 0.886719 0.5 " fill-opacity="1" fill-rule="nonzero"/></g></g></g></g><g fill="#000000" fill-opacity="1"><g transform="translate(61.413217, 482.965068)"><g><path d="M 14.671875 -13.71875 L 14.671875 -26.1875 C 15.960938 -28.332031 17.242188 -30.351562 18.515625 -32.25 C 19.785156 -34.144531 21.140625 -36.03125 22.578125 -37.90625 C 24.015625 -39.78125 25.628906 -41.796875 27.421875 -43.953125 L 42.546875 -61.734375 L 58 -61.734375 L 31.9375 -31.609375 L 30.90625 -31.90625 Z M 5.34375 0 L 5.34375 -61.734375 L 18.015625 -61.734375 L 18.015625 -44.828125 L 17.859375 -29.125 L 18.015625 -22.953125 L 18.015625 0 Z M 43.75 0 L 25.390625 -27.875 L 33.3125 -37.375 L 58.625 0 Z M 43.75 0 "/></g></g></g><g fill="#000000" fill-opacity="1"><g transform="translate(117.532676, 482.965068)"><g><path d="M 5.09375 0 L 5.09375 -45.734375 L 17.0625 -45.734375 L 17.0625 -37.828125 L 17.484375 -37.828125 C 18.304688 -40.609375 19.6875 -42.710938 21.625 -44.140625 C 23.5625 -45.566406 25.851562 -46.28125 28.5 -46.28125 C 29.164062 -46.28125 29.859375 -46.25 30.578125 -46.1875 C 31.296875 -46.132812 31.914062 -46.050781 32.4375 -45.9375 L 32.4375 -35 C 31.914062 -35.164062 31.132812 -35.296875 30.09375 -35.390625 C 29.0625 -35.492188 28.0625 -35.546875 27.09375 -35.546875 C 25.269531 -35.546875 23.617188 -35.144531 22.140625 -34.34375 C 20.660156 -33.539062 19.503906 -32.40625 18.671875 -30.9375 C 17.847656 -29.476562 17.4375 -27.753906 17.4375 -25.765625 L 17.4375 0 Z M 5.09375 0 "/></g></g></g><g fill="#000000" fill-opacity="1"><g transform="translate(148.504791, 482.965068)"><g><path d="M 5.046875 16.609375 L 7.296875 7.171875 L 9.6875 7.5 C 11.207031 7.832031 12.539062 7.882812 13.6875 7.65625 C 14.832031 7.4375 15.757812 6.921875 16.46875 6.109375 C 17.175781 5.296875 17.640625 4.171875 17.859375 2.734375 L 18.390625 0.078125 L 1.125 -45.734375 L 14.203125 -45.734375 L 21.921875 -22.25 C 22.859375 -19.320312 23.632812 -16.382812 24.25 -13.4375 C 24.875 -10.5 25.5625 -7.457031 26.3125 -4.3125 L 23.328125 -4.3125 C 24.066406 -7.457031 24.804688 -10.503906 25.546875 -13.453125 C 26.296875 -16.410156 27.144531 -19.34375 28.09375 -22.25 L 36.078125 -45.734375 L 49.046875 -45.734375 L 29.453125 5.765625 C 28.515625 8.222656 27.332031 10.332031 25.90625 12.09375 C 24.488281 13.863281 22.742188 15.21875 20.671875 16.15625 C 18.597656 17.09375 16.097656 17.5625 13.171875 17.5625 C 11.597656 17.5625 10.097656 17.472656 8.671875 17.296875 C 7.253906 17.117188 6.046875 16.890625 5.046875 16.609375 Z M 5.046875 16.609375 "/></g></g></g><g fill="#000000" fill-opacity="1"><g transform="translate(194.432734, 482.965068)"><g><path d="M 5.09375 17.3125 L 5.09375 -45.734375 L 17.234375 -45.734375 L 17.234375 -38.359375 L 17.765625 -38.359375 C 18.398438 -39.660156 19.269531 -40.925781 20.375 -42.15625 C 21.488281 -43.382812 22.90625 -44.398438 24.625 -45.203125 C 26.351562 -46.003906 28.445312 -46.40625 30.90625 -46.40625 C 34.414062 -46.40625 37.582031 -45.5 40.40625 -43.6875 C 43.238281 -41.875 45.5 -39.21875 47.1875 -35.71875 C 48.875 -32.226562 49.71875 -27.929688 49.71875 -22.828125 C 49.71875 -17.796875 48.894531 -13.523438 47.25 -10.015625 C 45.601562 -6.515625 43.359375 -3.835938 40.515625 -1.984375 C 37.671875 -0.140625 34.441406 0.78125 30.828125 0.78125 C 28.453125 0.78125 26.40625 0.390625 24.6875 -0.390625 C 22.976562 -1.179688 21.5625 -2.179688 20.4375 -3.390625 C 19.320312 -4.609375 18.429688 -5.878906 17.765625 -7.203125 L 17.4375 -7.203125 L 17.4375 17.3125 Z M 27.140625 -9.15625 C 29.285156 -9.15625 31.085938 -9.726562 32.546875 -10.875 C 34.015625 -12.019531 35.128906 -13.617188 35.890625 -15.671875 C 36.648438 -17.734375 37.03125 -20.132812 37.03125 -22.875 C 37.03125 -25.570312 36.648438 -27.941406 35.890625 -29.984375 C 35.128906 -32.035156 34.015625 -33.625 32.546875 -34.75 C 31.085938 -35.882812 29.285156 -36.453125 27.140625 -36.453125 C 25.035156 -36.453125 23.226562 -35.890625 21.71875 -34.765625 C 20.21875 -33.648438 19.070312 -32.078125 18.28125 -30.046875 C 17.5 -28.023438 17.109375 -25.632812 17.109375 -22.875 C 17.109375 -20.101562 17.507812 -17.695312 18.3125 -15.65625 C 19.113281 -13.613281 20.265625 -12.019531 21.765625 -10.875 C 23.273438 -9.726562 25.066406 -9.15625 27.140625 -9.15625 Z M 27.140625 -9.15625 "/></g></g></g><g fill="#000000" fill-opacity="1"><g transform="translate(243.053551, 482.965068)"><g><path d="M 28.546875 -45.734375 L 28.546875 -36.25 L 0.78125 -36.25 L 0.78125 -45.734375 Z M 7.453125 -56.96875 L 19.796875 -56.96875 L 19.796875 -13.546875 C 19.796875 -12.078125 20.117188 -11.003906 20.765625 -10.328125 C 21.421875 -9.660156 22.507812 -9.328125 24.03125 -9.328125 C 24.582031 -9.328125 25.289062 -9.375 26.15625 -9.46875 C 27.03125 -9.5625 27.703125 -9.648438 28.171875 -9.734375 L 29.53125 -0.328125 C 28.289062 -0.0234375 26.992188 0.1875 25.640625 0.3125 C 24.285156 0.4375 22.972656 0.5 21.703125 0.5 C 17.015625 0.5 13.46875 -0.582031 11.0625 -2.75 C 8.65625 -4.914062 7.453125 -8.085938 7.453125 -12.265625 Z M 7.453125 -56.96875 "/></g></g></g><g fill="#000000" fill-opacity="1"><g transform="translate(269.137018, 482.965068)"><g><path d="M 25.71875 0.90625 C 21.113281 0.90625 17.117188 -0.078125 13.734375 -2.046875 C 10.347656 -4.023438 7.738281 -6.785156 5.90625 -10.328125 C 4.070312 -13.878906 3.15625 -18.003906 3.15625 -22.703125 C 3.15625 -27.453125 4.070312 -31.597656 5.90625 -35.140625 C 7.738281 -38.691406 10.347656 -41.457031 13.734375 -43.4375 C 17.117188 -45.414062 21.113281 -46.40625 25.71875 -46.40625 C 30.3125 -46.40625 34.296875 -45.414062 37.671875 -43.4375 C 41.054688 -41.457031 43.664062 -38.691406 45.5 -35.140625 C 47.34375 -31.597656 48.265625 -27.453125 48.265625 -22.703125 C 48.265625 -18.003906 47.34375 -13.878906 45.5 -10.328125 C 43.664062 -6.785156 41.054688 -4.023438 37.671875 -2.046875 C 34.296875 -0.078125 30.3125 0.90625 25.71875 0.90625 Z M 25.71875 -8.859375 C 27.875 -8.859375 29.691406 -9.453125 31.171875 -10.640625 C 32.648438 -11.828125 33.773438 -13.460938 34.546875 -15.546875 C 35.316406 -17.640625 35.703125 -20.039062 35.703125 -22.75 C 35.703125 -25.476562 35.316406 -27.878906 34.546875 -29.953125 C 33.773438 -32.023438 32.648438 -33.65625 31.171875 -34.84375 C 29.691406 -36.03125 27.875 -36.625 25.71875 -36.625 C 23.570312 -36.625 21.75 -36.03125 20.25 -34.84375 C 18.757812 -33.65625 17.632812 -32.023438 16.875 -29.953125 C 16.125 -27.878906 15.75 -25.476562 15.75 -22.75 C 15.75 -20.039062 16.125 -17.640625 16.875 -15.546875 C 17.632812 -13.460938 18.753906 -11.828125 20.234375 -10.640625 C 21.710938 -9.453125 23.539062 -8.859375 25.71875 -8.859375 Z M 25.71875 -8.859375 "/></g></g></g><g fill="#ffffff" fill-opacity="1"><g transform="translate(316.315208, 482.965068)"><g><path d="M 27.09375 0 L 11.109375 0 L 11.109375 -10.859375 L 26.46875 -10.859375 C 30.476562 -10.859375 33.828125 -11.570312 36.515625 -13 C 39.210938 -14.4375 41.238281 -16.640625 42.59375 -19.609375 C 43.945312 -22.578125 44.625 -26.34375 44.625 -30.90625 C 44.625 -35.4375 43.945312 -39.175781 42.59375 -42.125 C 41.238281 -45.082031 39.21875 -47.28125 36.53125 -48.71875 C 33.851562 -50.15625 30.53125 -50.875 26.5625 -50.875 L 10.8125 -50.875 L 10.8125 -61.734375 L 27.296875 -61.734375 C 33.515625 -61.734375 38.851562 -60.492188 43.3125 -58.015625 C 47.769531 -55.546875 51.207031 -52.003906 53.625 -47.390625 C 56.039062 -42.773438 57.25 -37.28125 57.25 -30.90625 C 57.25 -24.5 56.046875 -18.988281 53.640625 -14.375 C 51.242188 -9.757812 47.785156 -6.207031 43.265625 -3.71875 C 38.753906 -1.238281 33.363281 0 27.09375 0 Z M 18.015625 -61.734375 L 18.015625 0 L 5.34375 0 L 5.34375 -61.734375 Z M 18.015625 -61.734375 "/></g></g></g><g fill="#ffffff" fill-opacity="1"><g transform="translate(372.931814, 482.965068)"><g><path d="M 25.8125 0.90625 C 21.144531 0.90625 17.117188 -0.0546875 13.734375 -1.984375 C 10.347656 -3.921875 7.738281 -6.65625 5.90625 -10.1875 C 4.070312 -13.726562 3.15625 -17.882812 3.15625 -22.65625 C 3.15625 -27.382812 4.0625 -31.519531 5.875 -35.0625 C 7.695312 -38.613281 10.265625 -41.390625 13.578125 -43.390625 C 16.898438 -45.398438 20.785156 -46.40625 25.234375 -46.40625 C 28.296875 -46.40625 31.140625 -45.90625 33.765625 -44.90625 C 36.390625 -43.914062 38.6875 -42.445312 40.65625 -40.5 C 42.632812 -38.550781 44.164062 -36.117188 45.25 -33.203125 C 46.34375 -30.285156 46.890625 -26.921875 46.890625 -23.109375 L 46.890625 -19.671875 L 8.078125 -19.671875 L 8.078125 -27.46875 L 40.890625 -27.46875 L 35.125 -25.4375 C 35.125 -27.8125 34.75 -29.867188 34 -31.609375 C 33.257812 -33.347656 32.164062 -34.691406 30.71875 -35.640625 C 29.269531 -36.597656 27.484375 -37.078125 25.359375 -37.078125 C 23.222656 -37.078125 21.410156 -36.59375 19.921875 -35.625 C 18.429688 -34.65625 17.289062 -33.328125 16.5 -31.640625 C 15.71875 -29.960938 15.328125 -28.03125 15.328125 -25.84375 L 15.328125 -20.375 C 15.328125 -17.8125 15.769531 -15.628906 16.65625 -13.828125 C 17.539062 -12.035156 18.789062 -10.675781 20.40625 -9.75 C 22.019531 -8.832031 23.90625 -8.375 26.0625 -8.375 C 27.519531 -8.375 28.847656 -8.585938 30.046875 -9.015625 C 31.253906 -9.441406 32.28125 -10.0625 33.125 -10.875 C 33.96875 -11.6875 34.609375 -12.6875 35.046875 -13.875 L 46.28125 -12.265625 C 45.5625 -9.609375 44.269531 -7.289062 42.40625 -5.3125 C 40.539062 -3.34375 38.203125 -1.8125 35.390625 -0.71875 C 32.585938 0.363281 29.394531 0.90625 25.8125 0.90625 Z M 25.8125 0.90625 "/></g></g></g><g fill="#ffffff" fill-opacity="1"><g transform="translate(418.569748, 482.965068)"><g><path d="M 23.40625 0.953125 C 19.675781 0.953125 16.367188 0.410156 13.484375 -0.671875 C 10.597656 -1.765625 8.25 -3.347656 6.4375 -5.421875 C 4.632812 -7.492188 3.5 -9.984375 3.03125 -12.890625 L 14.671875 -14.453125 C 15.191406 -12.359375 16.195312 -10.769531 17.6875 -9.6875 C 19.175781 -8.613281 21.164062 -8.078125 23.65625 -8.078125 C 26 -8.078125 27.847656 -8.523438 29.203125 -9.421875 C 30.554688 -10.316406 31.234375 -11.457031 31.234375 -12.84375 C 31.234375 -14.03125 30.742188 -15.003906 29.765625 -15.765625 C 28.785156 -16.523438 27.316406 -17.113281 25.359375 -17.53125 L 17.4375 -19.09375 C 13.019531 -20.007812 9.707031 -21.554688 7.5 -23.734375 C 5.289062 -25.921875 4.1875 -28.738281 4.1875 -32.1875 C 4.1875 -35.09375 4.976562 -37.609375 6.5625 -39.734375 C 8.15625 -41.859375 10.394531 -43.5 13.28125 -44.65625 C 16.164062 -45.820312 19.539062 -46.40625 23.40625 -46.40625 C 27.101562 -46.40625 30.304688 -45.878906 33.015625 -44.828125 C 35.722656 -43.773438 37.894531 -42.28125 39.53125 -40.34375 C 41.175781 -38.414062 42.222656 -36.140625 42.671875 -33.515625 L 31.609375 -31.984375 C 31.222656 -33.609375 30.359375 -34.9375 29.015625 -35.96875 C 27.679688 -37.007812 25.894531 -37.53125 23.65625 -37.53125 C 21.582031 -37.53125 19.875 -37.09375 18.53125 -36.21875 C 17.195312 -35.351562 16.53125 -34.234375 16.53125 -32.859375 C 16.53125 -31.691406 16.984375 -30.710938 17.890625 -29.921875 C 18.804688 -29.140625 20.300781 -28.539062 22.375 -28.125 L 30.65625 -26.46875 C 35.132812 -25.582031 38.457031 -24.117188 40.625 -22.078125 C 42.789062 -20.035156 43.875 -17.367188 43.875 -14.078125 C 43.875 -11.066406 43.003906 -8.4375 41.265625 -6.1875 C 39.523438 -3.9375 37.113281 -2.179688 34.03125 -0.921875 C 30.945312 0.328125 27.40625 0.953125 23.40625 0.953125 Z M 23.40625 0.953125 "/></g></g></g><g fill="#ffffff" fill-opacity="1"><g transform="translate(461.100519, 482.965068)"><g><path d="M 16.28125 -13.34375 L 16.28125 -28.171875 L 18.0625 -28.171875 L 33.21875 -45.734375 L 47.59375 -45.734375 L 27.625 -22.78125 L 24.734375 -22.78125 Z M 5.09375 0 L 5.09375 -61.734375 L 17.4375 -61.734375 L 17.4375 0 Z M 33.921875 0 L 20.046875 -20.015625 L 28.296875 -28.796875 L 48.46875 0 Z M 33.921875 0 "/></g></g></g></svg>